HIERARCHY
ROOT Hips
{
	OFFSET 0.000000 71.427986 0.000000
	CHANNELS 6 Xposition Yposition Zposition Xrotation Yrotation Zrotation
	JOINT Pelvis
	{
		OFFSET 0.000000 0.000000 0.000000
		CHANNELS 3 Xrotation Yrotation Zrotation
		JOINT LeftUpLeg
		{
			OFFSET 6.797100 -2.508499 -1.318700
			CHANNELS 3 Xrotation Yrotation Zrotation
			JOINT LeftLeg
			{
				OFFSET 0.069008 -29.241863 0.690200
				CHANNELS 3 Xrotation Yrotation Zrotation
				JOINT LeftFoot
				{
					OFFSET -0.069008 -29.568123 -0.266800
					CHANNELS 3 Xrotation Yrotation Zrotation
					JOINT LeftToeBase
					{
						OFFSET 3.145500 -8.631000 16.059900
						CHANNELS 3 Xrotation Yrotation Zrotation
						End Site
						{
							OFFSET 0.000000 18.501587 0.000000
						}
					}
				}
			}
			JOINT Left_ShortSleeve
			{
				OFFSET 0.265923 -10.480953 1.153800
				CHANNELS 3 Xrotation Yrotation Zrotation
				End Site
				{
					OFFSET 1.725763 19.823879 0.000000
				}
			}
		}
		JOINT RightUpLeg
		{
			OFFSET -6.797100 -2.508499 -1.318700
			CHANNELS 3 Xrotation Yrotation Zrotation
			JOINT RightLeg
			{
				OFFSET -0.082453 -29.241932 0.688000
				CHANNELS 3 Xrotation Yrotation Zrotation
				JOINT RightFoot
				{
					OFFSET 0.082453 -29.568058 -0.264600
					CHANNELS 3 Xrotation Yrotation Zrotation
					JOINT RightToeBase
					{
						OFFSET -3.115300 -8.682800 16.113400
						CHANNELS 3 Xrotation Yrotation Zrotation
						End Site
						{
							OFFSET 0.000000 18.567114 0.000000
						}
					}
				}
			}
			JOINT Right_ShortSleeve
			{
				OFFSET -0.265923 -10.480953 1.153800
				CHANNELS 3 Xrotation Yrotation Zrotation
				End Site
				{
					OFFSET -1.725766 19.823910 0.000000
				}
			}
		}
	}
	JOINT Spine
	{
		OFFSET 0.000000 13.368103 0.470500
		CHANNELS 3 Xrotation Yrotation Zrotation
		JOINT Spine1
		{
			OFFSET 0.147000 13.837402 0.538800
			CHANNELS 3 Xrotation Yrotation Zrotation
			JOINT Spine2
			{
				OFFSET 0.168000 16.242897 -1.435500
				CHANNELS 3 Xrotation Yrotation Zrotation
				JOINT Neck
				{
					OFFSET 0.217200 18.631500 -1.679100
					CHANNELS 3 Xrotation Yrotation Zrotation
					JOINT Head
					{
						OFFSET 0.000000 6.599396 1.385900
						CHANNELS 3 Xrotation Yrotation Zrotation
						JOINT Hat
						{
							OFFSET -0.532200 27.220596 -10.096100
							CHANNELS 3 Xrotation Yrotation Zrotation
							End Site
							{
								OFFSET 0.000000 22.029861 0.000000
							}
						}
						JOINT HairD
						{
							OFFSET -10.777400 17.437393 -1.325900
							CHANNELS 3 Xrotation Yrotation Zrotation
							JOINT HairD1
							{
								OFFSET -3.290299 -11.051193 1.062200
								CHANNELS 3 Xrotation Yrotation Zrotation
								End Site
								{
									OFFSET 0.000000 11.579437 0.000000
								}
							}
						}
						JOINT HairB
						{
							OFFSET -10.777400 17.437393 1.467900
							CHANNELS 3 Xrotation Yrotation Zrotation
							JOINT HairB1
							{
								OFFSET -1.561200 -12.956299 3.590200
								CHANNELS 3 Xrotation Yrotation Zrotation
								End Site
								{
									OFFSET 0.000000 13.534866 0.000000
								}
							}
						}
						JOINT HairA
						{
							OFFSET 9.713100 17.437393 1.467900
							CHANNELS 3 Xrotation Yrotation Zrotation
							JOINT HairA1
							{
								OFFSET 1.561200 -12.956299 3.590200
								CHANNELS 3 Xrotation Yrotation Zrotation
								End Site
								{
									OFFSET 0.000000 13.534866 0.000000
								}
							}
						}
						JOINT HairC
						{
							OFFSET 9.713100 17.437393 -1.325900
							CHANNELS 3 Xrotation Yrotation Zrotation
							JOINT HairC1
							{
								OFFSET 3.290300 -11.051193 1.062200
								CHANNELS 3 Xrotation Yrotation Zrotation
								End Site
								{
									OFFSET 0.000000 11.579437 0.000000
								}
							}
						}
					}
				}
				JOINT LeftShoulder
				{
					OFFSET 5.101800 15.108002 -2.763700
					CHANNELS 3 Xrotation Yrotation Zrotation
					JOINT LeftArm
					{
						OFFSET 9.825497 2.506317 -1.597400
						CHANNELS 3 Xrotation Yrotation Zrotation
						JOINT LeftForeArm
						{
							OFFSET 21.966244 0.000000 0.000000
							CHANNELS 3 Xrotation Yrotation Zrotation
							JOINT LeftHand
							{
								OFFSET 33.879036 0.000000 0.000000
								CHANNELS 3 Xrotation Yrotation Zrotation
								JOINT LeftHandThumb1
								{
									OFFSET 6.715286 -2.359680 3.363841
									CHANNELS 3 Xrotation Yrotation Zrotation
									JOINT LeftHandThumb2
									{
										OFFSET 2.507072 -1.447464 1.447461
										CHANNELS 3 Xrotation Yrotation Zrotation
										JOINT LeftHandThumb3
										{
											OFFSET 2.898338 -1.673355 1.673357
											CHANNELS 3 Xrotation Yrotation Zrotation
											End Site
											{
												OFFSET -0.295959 3.727692 -0.131651
											}
										}
									}
								}
								JOINT LeftHandIndex1
								{
									OFFSET 14.190811 -0.254547 3.840278
									CHANNELS 3 Xrotation Yrotation Zrotation
									JOINT LeftHandIndex2
									{
										OFFSET 3.551727 0.000000 -0.000000
										CHANNELS 3 Xrotation Yrotation Zrotation
										JOINT LeftHandIndex3
										{
											OFFSET 2.894196 0.000000 0.000000
											CHANNELS 3 Xrotation Yrotation Zrotation
											End Site
											{
												OFFSET -1.000603 2.690872 0.366626
											}
										}
									}
								}
								JOINT LeftHandMiddle1
								{
									OFFSET 13.776489 0.000000 0.000000
									CHANNELS 3 Xrotation Yrotation Zrotation
									JOINT LeftHandMiddle2
									{
										OFFSET 3.438232 0.000000 0.000000
										CHANNELS 3 Xrotation Yrotation Zrotation
										JOINT LeftHandMiddle3
										{
											OFFSET 3.691551 0.000000 0.000000
											CHANNELS 3 Xrotation Yrotation Zrotation
											End Site
											{
												OFFSET -1.082298 3.499527 0.457670
											}
										}
									}
								}
								JOINT LeftHandRing1
								{
									OFFSET 13.966164 -0.268127 -3.067488
									CHANNELS 3 Xrotation Yrotation Zrotation
									JOINT LeftHandRing2
									{
										OFFSET 3.162567 0.000000 0.000000
										CHANNELS 3 Xrotation Yrotation Zrotation
										JOINT LeftHandRing3
										{
											OFFSET 3.324348 0.000000 0.000000
											CHANNELS 3 Xrotation Yrotation Zrotation
											End Site
											{
												OFFSET -0.861900 3.184998 0.405154
											}
										}
									}
								}
								JOINT LeftHandPinky1
								{
									OFFSET 13.131393 -0.168503 -5.746925
									CHANNELS 3 Xrotation Yrotation Zrotation
									JOINT LeftHandPinky2
									{
										OFFSET 2.849182 0.000000 0.000000
										CHANNELS 3 Xrotation Yrotation Zrotation
										JOINT LeftHandPinky3
										{
											OFFSET 2.805038 0.000000 0.000000
											CHANNELS 3 Xrotation Yrotation Zrotation
											End Site
											{
												OFFSET -0.882500 2.642609 0.325652
											}
										}
									}
								}
							}
							JOINT Left_Sleeve
							{
								OFFSET 6.592125 -0.646545 0.805568
								CHANNELS 3 Xrotation Yrotation Zrotation
								End Site
								{
									OFFSET -0.000179 20.275787 -0.000000
								}
							}
						}
					}
				}
				JOINT RightShoulder
				{
					OFFSET -5.731700 15.108002 -2.763700
					CHANNELS 3 Xrotation Yrotation Zrotation
					JOINT RightArm
					{
						OFFSET -9.825497 2.506317 -1.597400
						CHANNELS 3 Xrotation Yrotation Zrotation
						JOINT RightForeArm
						{
							OFFSET -21.966242 0.000000 0.000000
							CHANNELS 3 Xrotation Yrotation Zrotation
							JOINT RightHand
							{
								OFFSET -33.879032 0.000000 0.000000
								CHANNELS 3 Xrotation Yrotation Zrotation
								JOINT RightHandThumb1
								{
									OFFSET -6.715286 -2.359680 3.363841
									CHANNELS 3 Xrotation Yrotation Zrotation
									JOINT RightHandThumb2
									{
										OFFSET -2.507072 -1.447464 1.447461
										CHANNELS 3 Xrotation Yrotation Zrotation
										JOINT RightHandThumb3
										{
											OFFSET -2.898338 -1.673355 1.673357
											CHANNELS 3 Xrotation Yrotation Zrotation
											End Site
											{
												OFFSET 0.295959 3.727692 -0.131651
											}
										}
									}
								}
								JOINT RightHandIndex1
								{
									OFFSET -14.190811 -0.254547 3.840278
									CHANNELS 3 Xrotation Yrotation Zrotation
									JOINT RightHandIndex2
									{
										OFFSET -3.551727 0.000000 -0.000000
										CHANNELS 3 Xrotation Yrotation Zrotation
										JOINT RightHandIndex3
										{
											OFFSET -2.894196 0.000000 0.000000
											CHANNELS 3 Xrotation Yrotation Zrotation
											End Site
											{
												OFFSET 1.000603 2.690872 0.366626
											}
										}
									}
								}
								JOINT RightHandMiddle1
								{
									OFFSET -13.776489 0.000000 0.000000
									CHANNELS 3 Xrotation Yrotation Zrotation
									JOINT RightHandMiddle2
									{
										OFFSET -3.438232 0.000000 0.000000
										CHANNELS 3 Xrotation Yrotation Zrotation
										JOINT RightHandMiddle3
										{
											OFFSET -3.691551 0.000000 0.000000
											CHANNELS 3 Xrotation Yrotation Zrotation
											End Site
											{
												OFFSET 1.082298 3.499527 0.457670
											}
										}
									}
								}
								JOINT RightHandRing1
								{
									OFFSET -13.966164 -0.268127 -3.067488
									CHANNELS 3 Xrotation Yrotation Zrotation
									JOINT RightHandRing2
									{
										OFFSET -3.162567 0.000000 0.000000
										CHANNELS 3 Xrotation Yrotation Zrotation
										JOINT RightHandRing3
										{
											OFFSET -3.324348 0.000000 0.000000
											CHANNELS 3 Xrotation Yrotation Zrotation
											End Site
											{
												OFFSET 0.861900 3.184998 0.405154
											}
										}
									}
								}
								JOINT RightHandPinky1
								{
									OFFSET -13.131393 -0.168503 -5.746925
									CHANNELS 3 Xrotation Yrotation Zrotation
									JOINT RightHandPinky2
									{
										OFFSET -2.849182 0.000000 0.000000
										CHANNELS 3 Xrotation Yrotation Zrotation
										JOINT RightHandPinky3
										{
											OFFSET -2.805038 0.000000 0.000000
											CHANNELS 3 Xrotation Yrotation Zrotation
											End Site
											{
												OFFSET 0.882500 2.642609 0.325652
											}
										}
									}
								}
							}
							JOINT Right_Sleeve
							{
								OFFSET -6.592125 -0.646545 0.805568
								CHANNELS 3 Xrotation Yrotation Zrotation
								End Site
								{
									OFFSET 0.000179 20.275787 -0.000000
								}
							}
						}
					}
				}
				JOINT Bind_Right_JacketString
				{
					OFFSET -3.534800 11.969597 7.200700
					CHANNELS 3 Xrotation Yrotation Zrotation
					JOINT Bind_Right_JacketString1
					{
						OFFSET -0.319900 -6.102600 2.794100
						CHANNELS 3 Xrotation Yrotation Zrotation
						End Site
						{
							OFFSET 0.000000 6.719452 0.000000
						}
					}
				}
				JOINT Bind_Left_JacketString
				{
					OFFSET 2.904800 11.969597 7.200700
					CHANNELS 3 Xrotation Yrotation Zrotation
					JOINT Bind_Left_JacketString1
					{
						OFFSET 0.364800 -5.904503 3.186800
						CHANNELS 3 Xrotation Yrotation Zrotation
						End Site
						{
							OFFSET 0.000000 6.719513 0.000000
						}
					}
				}
				JOINT HairE
				{
					OFFSET 5.915200 17.612701 -11.592200
					CHANNELS 3 Xrotation Yrotation Zrotation
					JOINT HairE1
					{
						OFFSET 0.289200 -7.171898 -1.284500
						CHANNELS 3 Xrotation Yrotation Zrotation
						End Site
						{
							OFFSET 0.000000 7.291756 0.000000
						}
					}
				}
				JOINT HairF
				{
					OFFSET -0.864800 17.612701 -11.592200
					CHANNELS 3 Xrotation Yrotation Zrotation
					JOINT HairF1
					{
						OFFSET 0.000000 -14.087097 -2.127501
						CHANNELS 3 Xrotation Yrotation Zrotation
						End Site
						{
							OFFSET 0.000000 14.246841 0.000000
						}
					}
				}
				JOINT HairG
				{
					OFFSET -8.087700 17.612701 -11.592200
					CHANNELS 3 Xrotation Yrotation Zrotation
					JOINT HairG1
					{
						OFFSET -0.293600 -6.081398 -0.910100
						CHANNELS 3 Xrotation Yrotation Zrotation
						End Site
						{
							OFFSET 0.000000 6.156120 0.000000
						}
					}
				}
			}
		}
	}
	JOINT Pouch
	{
		OFFSET 0.000000 4.394501 10.847300
		CHANNELS 3 Xrotation Yrotation Zrotation
		End Site
		{
			OFFSET 0.000000 21.880577 0.000000
		}
	}
	JOINT Bag
	{
		OFFSET -13.229000 4.813004 -0.593300
		CHANNELS 3 Xrotation Yrotation Zrotation
		End Site
		{
			OFFSET 0.000000 21.880577 0.000000
		}
	}
	JOINT OccupyGuyFacialAnim_Joint
	{
		OFFSET 1.000000 -70.206398 -1.655000
		CHANNELS 3 Xrotation Yrotation Zrotation
		End Site
		{
			OFFSET 0.000000 21.880577 0.000000
		}
	}
}
MOTION
Frames: 4
Frame Time: 0.016667
-0.940323 59.286316 0.302597 7.173544 -59.356024 -0.197613 -0.000000 -0.000003 -0.000000 -48.512723 -13.211038 31.738721 34.752624 -7.147271 -0.213807 18.113371 0.682678 -3.898986 0.000000 0.000000 -0.000001 0.000002 0.000001 0.000002 -52.023567 -3.582675 -14.004155 66.997619 0.594668 0.054344 -10.644695 -1.102877 8.069235 0.000000 0.000001 0.000000 0.000002 0.000001 0.000002 4.802805 11.068392 1.000477 6.079592 5.798304 -0.521030 5.085130 16.136086 1.189173 6.289643 5.421244 -4.908951 -11.393630 17.889742 5.359090 0.000002 0.000000 0.000000 0.000002 0.000000 0.000000 0.000002 0.000000 0.000001 0.000002 0.000000 0.000000 0.000002 0.000000 0.000000 0.000002 0.000000 0.000000 0.000002 0.000000 0.000000 0.000002 0.000000 0.000000 0.000002 0.000000 0.000000 3.544244 4.756014 -11.623020 -54.038855 -33.116428 -50.381559 0.000086 -81.882350 0.000074 -58.768368 25.992632 38.870299 -14.557469 10.837937 12.229973 0.749551 -4.257826 13.305524 -0.000000 0.000001 -0.000000 -0.809537 2.578183 -31.496434 3.095883 5.163754 -61.866952 0.000002 0.000000 -0.000000 -2.430836 1.729216 -41.460915 2.952343 5.084728 -60.259931 -0.000000 0.000000 0.000001 -6.054123 -0.166610 -49.857570 3.046258 5.137022 -61.313959 -0.000001 -0.000000 -0.000002 -8.298293 -6.522659 -38.520143 2.848781 5.024384 -59.084422 -0.000000 -0.000001 0.000003 0.000000 -0.000002 -0.000001 -14.733705 2.115972 -4.463088 72.337557 138.834059 -52.653515 0.000008 29.080729 0.000002 -49.752450 -7.371306 -31.498729 8.377129 -4.904140 11.021993 21.620211 -18.183891 -18.379209 -0.000001 -0.000001 0.000004 0.558932 -4.406589 25.436668 1.653052 -3.560314 49.799094 -0.000000 -0.000000 0.000000 10.969822 -12.875560 52.800822 6.387579 -4.324421 111.833686 0.000000 0.000002 -0.000000 3.705092 -7.151287 57.622426 5.328222 -4.608682 98.293430 0.000001 0.000001 -0.000001 0.474817 -5.173000 58.987658 3.194322 -4.421934 71.674161 0.000001 0.000001 0.000002 0.000004 0.000001 0.000000 0.000001 -0.000001 0.000002 -0.000000 -0.000001 0.000001 0.000001 -0.000001 0.000000 0.000001 -0.000001 0.000000 0.000001 -0.000001 0.000002 -0.000000 -0.000001 0.000001 0.000001 -0.000001 0.000000 0.000001 -0.000001 0.000000 0.000001 -0.000001 0.000002 -0.000000 -0.000001 0.000001 -0.000000 -0.000003 -0.000000 -0.000000 -0.000003 -0.000000 -0.000000 -0.000003 -0.000000 
-1.144515 60.146812 -2.826162 8.673689 -60.260082 0.738138 0.000000 -0.000001 0.000000 -52.330116 -13.381809 28.253574 43.463345 -4.230467 -0.089563 10.847158 0.180443 -4.222380 -0.000001 0.000002 0.000000 0.000003 -0.000002 -0.000000 -53.311635 -5.843985 -11.011080 64.471959 0.139330 0.043054 -5.860493 -0.844800 8.783852 -0.000001 0.000001 -0.000000 -0.000001 0.000000 -0.000000 4.951465 10.904995 1.394842 6.266320 5.663341 -0.193638 5.219009 15.988011 1.524877 6.117316 5.473303 -4.875343 -11.907627 18.231194 4.903863 0.000001 -0.000000 0.000001 0.000001 -0.000000 0.000001 0.000001 -0.000000 0.000002 0.000001 -0.000000 0.000002 0.000001 0.000000 0.000001 0.000001 -0.000000 0.000002 0.000001 0.000000 0.000001 0.000001 -0.000000 0.000001 0.000001 -0.000000 0.000001 3.410884 4.228982 -11.245754 -53.679720 -32.244579 -50.209585 0.000426 -82.808285 0.000435 -57.769959 25.806943 38.829065 -14.557469 10.837942 12.229973 0.749551 -4.257820 13.305520 0.000000 0.000001 -0.000000 -0.809536 2.578182 -31.496434 3.095882 5.163752 -61.866952 0.000002 0.000000 -0.000002 -2.430837 1.729216 -41.460915 2.952345 5.084728 -60.259931 0.000002 0.000000 -0.000001 -6.054124 -0.166609 -49.857567 3.046258 5.137020 -61.313952 -0.000001 -0.000001 -0.000000 -8.298293 -6.522660 -38.520139 2.848783 5.024384 -59.084422 0.000000 -0.000000 0.000001 -0.000002 0.000001 0.000002 -14.874839 3.395348 -4.575095 74.932462 137.222079 -55.175166 -0.000001 32.460665 0.000001 -50.128592 -7.281812 -32.986064 8.377130 -4.904139 11.021997 21.620211 -18.183886 -18.379213 -0.000000 0.000002 0.000001 0.558933 -4.406590 25.436671 1.653052 -3.560316 49.799094 -0.000000 -0.000001 0.000005 10.969821 -12.875559 52.800815 6.387579 -4.324419 111.833686 -0.000000 0.000000 -0.000001 3.705094 -7.151287 57.622433 5.328222 -4.608681 98.293423 -0.000000 0.000000 0.000002 0.474818 -5.173000 58.987658 3.194322 -4.421934 71.674161 -0.000002 -0.000002 -0.000002 0.000000 0.000001 0.000001 -0.000003 -0.000002 -0.000000 -0.000001 -0.000001 0.000000 -0.000003 -0.000002 -0.000000 -0.000003 -0.000002 -0.000000 -0.000003 -0.000002 -0.000000 -0.000001 -0.000001 0.000000 -0.000003 -0.000002 -0.000000 -0.000003 -0.000002 -0.000000 -0.000003 -0.000002 -0.000000 -0.000001 -0.000001 0.000000 0.000000 -0.000001 0.000000 0.000000 -0.000001 0.000000 0.000000 -0.000001 0.000000 
-1.273302 61.155998 -5.932700 11.062290 -61.618306 2.461046 -0.000000 0.000000 -0.000000 -55.579712 -12.589976 24.587863 50.469736 -2.261793 -0.006589 4.882795 -0.012086 -5.151921 -0.000001 0.000002 -0.000000 -0.000000 0.000000 0.000001 -53.299142 -8.587861 -7.099599 60.262178 0.161713 0.080705 -3.717696 -0.545704 5.636080 0.000000 -0.000001 -0.000000 0.000003 -0.000000 -0.000001 4.988762 10.868247 1.585722 6.308404 5.733791 0.124733 5.204264 16.033850 1.859610 6.010208 5.497588 -4.746240 -12.496669 18.583676 4.459508 0.000001 0.000000 0.000000 0.000001 0.000000 0.000000 0.000001 0.000000 -0.000000 0.000001 0.000000 -0.000000 0.000001 0.000000 -0.000001 0.000001 0.000000 -0.000000 0.000001 0.000000 -0.000001 0.000001 0.000000 0.000000 0.000001 0.000000 0.000000 3.342829 3.885604 -11.068017 -52.875793 -31.812409 -49.380601 -0.000606 -83.745373 -0.000624 -57.807456 26.117735 39.098981 -14.557469 10.837940 12.229976 0.749550 -4.257819 13.305524 -0.000001 0.000001 -0.000001 -0.809537 2.578182 -31.496434 3.095882 5.163752 -61.866959 0.000001 0.000001 -0.000000 -2.430836 1.729216 -41.460911 2.952345 5.084728 -60.259931 -0.000000 0.000001 -0.000001 -6.054124 -0.166612 -49.857563 3.046258 5.137018 -61.313946 -0.000002 0.000001 -0.000001 -8.298292 -6.522661 -38.520139 2.848783 5.024384 -59.084422 -0.000000 -0.000000 0.000001 0.000001 0.000002 -0.000000 -14.973897 4.793930 -4.441298 77.819262 135.933223 -57.695714 -0.000018 35.490045 0.000024 -50.675209 -7.755456 -34.661731 8.377129 -4.904139 11.021996 21.620212 -18.183886 -18.379209 -0.000000 0.000000 0.000002 0.558932 -4.406589 25.436668 1.653053 -3.560315 49.799094 0.000002 -0.000001 0.000002 10.969823 -12.875559 52.800825 6.387577 -4.324418 111.833686 0.000000 -0.000001 0.000001 3.705095 -7.151286 57.622433 5.328222 -4.608681 98.293430 0.000000 -0.000000 -0.000003 0.474818 -5.172999 58.987658 3.194320 -4.421934 71.674161 -0.000000 0.000002 -0.000001 0.000001 0.000001 0.000001 0.000001 0.000001 -0.000000 0.000001 0.000001 -0.000000 0.000001 0.000001 -0.000000 0.000001 0.000001 -0.000000 0.000001 0.000001 -0.000000 0.000001 0.000001 -0.000000 0.000001 0.000001 -0.000000 0.000001 0.000001 -0.000000 0.000001 0.000001 -0.000000 0.000001 0.000001 -0.000000 -0.000000 0.000000 -0.000000 -0.000000 0.000000 -0.000000 -0.000000 0.000000 -0.000000 
-1.369355 62.248718 -9.020901 14.364221 -63.363364 5.233066 -0.000000 -0.000001 -0.000001 -58.216796 -10.563255 21.137655 54.918273 -1.618815 0.017248 1.027529 0.066034 -6.786114 -0.000000 0.000003 -0.000000 -0.000001 -0.000001 -0.000001 -53.090350 -10.417220 -3.784375 56.137038 1.628777 0.168655 -3.204880 -0.561580 7.216610 0.000000 -0.000001 -0.000000 0.000002 0.000000 -0.000001 4.960781 10.880568 1.423910 6.230982 6.000039 0.369758 5.078925 16.267962 2.126716 5.962565 5.490723 -4.561724 -13.126858 18.849121 4.125948 -0.000000 0.000000 -0.000001 -0.000000 0.000000 -0.000001 -0.000000 0.000000 -0.000001 -0.000000 0.000000 -0.000001 0.000001 0.000000 -0.000001 -0.000000 0.000000 -0.000001 0.000001 0.000000 -0.000001 -0.000000 0.000000 -0.000001 -0.000000 0.000000 -0.000001 3.352119 3.739650 -11.139676 -51.775897 -31.735402 -48.041519 0.000323 -84.599652 0.000301 -58.433853 26.314975 39.463508 -14.557471 10.837937 12.229973 0.749550 -4.257823 13.305522 -0.000000 -0.000002 -0.000000 -0.809535 2.578181 -31.496437 3.095881 5.163752 -61.866952 0.000000 0.000001 -0.000000 -2.430836 1.729215 -41.460918 2.952344 5.084727 -60.259931 0.000000 0.000001 0.000001 -6.054124 -0.166611 -49.857570 3.046258 5.137019 -61.313952 -0.000001 0.000000 0.000001 -8.298292 -6.522659 -38.520143 2.848783 5.024385 -59.084415 0.000000 -0.000000 0.000001 0.000000 -0.000004 -0.000003 -15.042383 6.381665 -4.115086 80.832946 134.974414 -60.173325 0.000008 38.062045 -0.000000 -50.934835 -8.384242 -36.240335 8.377131 -4.904137 11.021993 21.620209 -18.183888 -18.379209 0.000000 -0.000001 -0.000000 0.558932 -4.406589 25.436666 1.653053 -3.560315 49.799094 0.000001 -0.000000 0.000000 10.969821 -12.875558 52.800815 6.387578 -4.324420 111.833686 -0.000000 -0.000001 -0.000003 3.705091 -7.151286 57.622433 5.328222 -4.608681 98.293423 0.000001 0.000000 0.000002 0.474818 -5.172999 58.987658 3.194323 -4.421936 71.674161 0.000001 0.000001 -0.000001 -0.000001 0.000001 0.000000 -0.000001 0.000001 -0.000000 0.000001 -0.000002 0.000001 -0.000001 0.000001 -0.000002 -0.000001 0.000001 -0.000002 -0.000001 0.000001 -0.000000 0.000001 -0.000002 0.000002 -0.000001 0.000001 -0.000002 -0.000001 0.000001 -0.000002 -0.000001 0.000001 -0.000000 0.000001 -0.000002 0.000002 -0.000000 -0.000001 -0.000001 -0.000000 -0.000001 -0.000001 -0.000000 -0.000001 -0.000001 
